<svg width="23" height="37" viewBox="0 0 23 37" fill="none" xmlns="http://www.w3.org/2000/svg">
<g clip-path="url(#clip0_106911_404)">
<path d="M15.8005 4.58423H4.60521C2.96968 4.58423 1.63848 5.91426 1.63848 7.54642V18.4999H1.34866C0.688553 18.4999 0.15332 19.0338 0.15332 19.6935V26.9324C0.15332 27.592 0.688553 28.126 1.34866 28.126H1.63848V29.4534C1.63848 31.0873 2.96974 32.4156 4.60521 32.4156H19.8807C21.5153 32.4156 22.8466 31.0873 22.8466 29.4534V11.5948L15.8005 4.58423ZM5.86294 25.0883C6.20606 25.0883 6.58647 25.0138 6.81066 24.9246L6.98185 25.8106C6.7732 25.9153 6.30307 26.0273 5.69169 26.0273C3.95331 26.0273 3.05808 24.9474 3.05808 23.5172C3.05808 21.8042 4.28169 20.8507 5.80339 20.8507C6.39285 20.8507 6.84026 20.9699 7.04157 21.0737L6.81066 21.9751C6.57918 21.8778 6.25849 21.7887 5.85571 21.7887C4.95273 21.7887 4.25163 22.3327 4.25163 23.4499C4.25163 24.4552 4.84843 25.0883 5.86294 25.0883ZM19.8807 30.6014H4.60521C3.97193 30.6014 3.45618 30.0865 3.45618 29.4534V28.126H17.6961C18.3563 28.126 18.8916 27.592 18.8916 26.9324V19.6935C18.8916 19.0338 18.3563 18.4999 17.6961 18.4999H3.45618V7.54642C3.45618 6.91497 3.97193 6.40007 4.60521 6.40007L15.1208 6.38916V10.2702C15.1208 11.4037 16.042 12.3244 17.1782 12.3244L20.9858 12.3135L21.0287 29.4534C21.0287 30.0865 20.5139 30.6014 19.8807 30.6014ZM8.98374 23.8447C8.14811 23.5545 7.60334 23.0924 7.60334 22.3627C7.60334 21.5056 8.31941 20.8507 9.50573 20.8507C10.0725 20.8507 10.4908 20.9698 10.7887 21.1036L10.5353 22.0198C10.334 21.9233 9.97587 21.7813 9.48342 21.7813C8.99097 21.7813 8.75226 22.0052 8.75226 22.2654C8.75226 22.5856 9.0356 22.7276 9.68478 22.9731C10.5727 23.3007 10.9904 23.7629 10.9904 24.4707C10.9904 25.3121 10.3412 26.0273 8.96131 26.0273C8.38682 26.0273 7.81967 25.8781 7.53633 25.7215L7.7677 24.7836C8.07347 24.9401 8.54361 25.0957 9.02831 25.0957C9.55042 25.0957 9.82648 24.88 9.82648 24.5524C9.82654 24.2396 9.58783 24.0603 8.98374 23.8447ZM13.0142 23.8447C12.1787 23.5545 11.6338 23.0924 11.6338 22.3627C11.6338 21.5056 12.35 20.8507 13.5362 20.8507C14.1035 20.8507 14.5207 20.9698 14.8196 21.1036L14.5659 22.0198C14.3645 21.9233 14.0065 21.7813 13.514 21.7813C13.0215 21.7813 12.7828 22.0052 12.7828 22.2654C12.7828 22.5856 13.0661 22.7276 13.7154 22.9731C14.6033 23.3007 15.0212 23.7629 15.0212 24.4707C15.0212 25.3121 14.372 26.0273 12.992 26.0273C12.4174 26.0273 11.8502 25.8781 11.5669 25.7215L11.7984 24.7836C12.104 24.9401 12.5742 25.0957 13.0589 25.0957C13.581 25.0957 13.8571 24.88 13.8571 24.5524C13.857 24.2396 13.6183 24.0603 13.0142 23.8447Z" fill="#2A7AE4"/>
</g>
<defs>
<clipPath id="clip0_106911_404">
<rect width="22" height="35.5385" fill="white" transform="translate(0.5 0.730713)"/>
</clipPath>
</defs>
</svg>
