<svg width="32" height="32" viewBox="0 0 32 32" fill="none" xmlns="http://www.w3.org/2000/svg">
<g clip-path="url(#clip0_1_526)">
<path d="M16.0001 20.2667C18.3565 20.2667 20.2667 18.3564 20.2667 16C20.2667 13.6436 18.3565 11.7333 16.0001 11.7333C13.6436 11.7333 11.7334 13.6436 11.7334 16C11.7334 18.3564 13.6436 20.2667 16.0001 20.2667Z" fill="#2A7AE4"/>
<path d="M12 2.66669L9.55996 5.33335H5.33329C3.86663 5.33335 2.66663 6.53335 2.66663 8.00002V24C2.66663 25.4667 3.86663 26.6667 5.33329 26.6667H26.6666C28.1333 26.6667 29.3333 25.4667 29.3333 24V8.00002C29.3333 6.53335 28.1333 5.33335 26.6666 5.33335H22.44L20 2.66669H12ZM16 22.6667C12.32 22.6667 9.33329 19.68 9.33329 16C9.33329 12.32 12.32 9.33335 16 9.33335C19.68 9.33335 22.6666 12.32 22.6666 16C22.6666 19.68 19.68 22.6667 16 22.6667Z" fill="#2A7AE4"/>
</g>
<defs>
<clipPath id="clip0_1_526">
<rect width="32" height="32" fill="white"/>
</clipPath>
</defs>
</svg>
