<svg width="32" height="32" viewBox="0 0 32 32" fill="none" xmlns="http://www.w3.org/2000/svg">
<g clip-path="url(#clip0_1_106)">
<path d="M17.3333 3.99998C17.3333 2.53331 18.5333 1.33331 20 1.33331C21.4667 1.33331 22.6667 2.53331 22.6667 3.99998C22.6667 5.46665 21.4667 6.66665 20 6.66665C18.5333 6.66665 17.3333 5.46665 17.3333 3.99998ZM9.66667 30C9.12 30 8.66667 30.4533 8.66667 31C8.66667 31.5466 9.12 32 9.66667 32C10.2133 32 10.6667 31.5466 10.6667 31C10.6667 30.4533 10.2133 30 9.66667 30ZM21 30C20.4533 30 20 30.4533 20 31C20 31.5466 20.4533 32 21 32C21.5467 32 22 31.5466 22 31C22 30.4533 21.5467 30 21 30ZM25.6533 25.3333C25.3333 25.3333 25.0533 25.48 24.8667 25.7333C24.1333 26.7066 22.9733 27.3333 21.6667 27.3333H21.3333V19.3333L15.5733 15.7733L17.9733 11.92C19.5067 14.3733 22.24 16 25.3333 16V13.3333C22.8667 13.3333 20.7467 11.84 19.8267 9.70665L19.1333 8.09331C18.88 7.51998 18.1467 6.66665 16.9333 6.66665H9.33333L6 12L8.26667 13.4133L10.8 9.33331H13.9333L10.7333 14.4533C10.32 15.12 10.2133 15.9333 10.4533 16.68L12.24 22.2133L8.08 27.2266C7.14667 27.0133 6.34667 26.4666 5.8 25.7333C5.61333 25.48 5.32 25.3333 5 25.3333C4.41333 25.3333 4 25.8133 4 26.3333C4 26.5333 4.06667 26.7466 4.2 26.9333C5.29333 28.4 7.04 29.3333 9 29.3333H21.6667C23.6267 29.3333 25.3733 28.4 26.4667 26.9333C26.6 26.7466 26.6667 26.5333 26.6667 26.3333C26.6667 25.8133 26.24 25.3333 25.6533 25.3333ZM18.6667 27.3333H11.4667L15.3333 22.6666L14 18.2666L18.6667 21.2V27.3333Z" fill="#464646"/>
</g>
<defs>
<clipPath id="clip0_1_106">
<rect width="32" height="32" fill="white"/>
</clipPath>
</defs>
</svg>
